<mxfile host="Electron" modified="2024-06-25T16:16:34.769Z" agent="Mozilla/5.0 (Windows NT 10.0; Win64; x64) AppleWebKit/537.36 (KHTML, like Gecko) draw.io/22.0.3 Chrome/114.0.5735.289 Electron/25.8.4 Safari/537.36" etag="Cwq1WFj1P2an3pqgqaPr" version="22.0.3" type="device">
  <diagram name="Page-1" id="tegpVs4C8BCDwVMg_Ekf">
    <mxGraphModel dx="914" dy="814" grid="1" gridSize="10" guides="1" tooltips="1" connect="1" arrows="1" fold="1" page="1" pageScale="1" pageWidth="3300" pageHeight="4681" math="0" shadow="0">
      <root>
        <mxCell id="0" />
        <mxCell id="1" parent="0" />
        <mxCell id="1zrVDTjGeMV9Ud-g9cSx-2" value="" style="endArrow=classic;html=1;rounded=0;fillColor=none;strokeColor=#FFFFFF;" parent="1" edge="1">
          <mxGeometry width="50" height="50" relative="1" as="geometry">
            <mxPoint x="40" y="1060" as="sourcePoint" />
            <mxPoint x="802" y="1060" as="targetPoint" />
          </mxGeometry>
        </mxCell>
        <mxCell id="1zrVDTjGeMV9Ud-g9cSx-6" value="" style="endArrow=classic;html=1;rounded=0;fillColor=none;strokeColor=#FFFFFF;" parent="1" edge="1">
          <mxGeometry width="50" height="50" relative="1" as="geometry">
            <mxPoint x="40" y="1160" as="sourcePoint" />
            <mxPoint x="800" y="1160" as="targetPoint" />
          </mxGeometry>
        </mxCell>
        <mxCell id="1zrVDTjGeMV9Ud-g9cSx-10" value="" style="shape=parallelogram;perimeter=parallelogramPerimeter;whiteSpace=wrap;html=1;fixedSize=1;fillColor=none;strokeColor=#FFFFFF;" parent="1" vertex="1">
          <mxGeometry x="80" y="1100" width="120" height="60" as="geometry" />
        </mxCell>
        <mxCell id="1zrVDTjGeMV9Ud-g9cSx-11" value="" style="shape=parallelogram;perimeter=parallelogramPerimeter;whiteSpace=wrap;html=1;fixedSize=1;fillColor=none;strokeColor=#FFFFFF;" parent="1" vertex="1">
          <mxGeometry x="180" y="1100" width="120" height="60" as="geometry" />
        </mxCell>
        <mxCell id="1zrVDTjGeMV9Ud-g9cSx-12" value="" style="endArrow=classic;html=1;rounded=0;fillColor=none;strokeColor=#FFFFFF;" parent="1" edge="1">
          <mxGeometry width="50" height="50" relative="1" as="geometry">
            <mxPoint x="40" y="1270" as="sourcePoint" />
            <mxPoint x="800" y="1270" as="targetPoint" />
          </mxGeometry>
        </mxCell>
        <mxCell id="1zrVDTjGeMV9Ud-g9cSx-13" value="" style="shape=parallelogram;perimeter=parallelogramPerimeter;whiteSpace=wrap;html=1;fixedSize=1;fillColor=none;strokeColor=#FFFFFF;" parent="1" vertex="1">
          <mxGeometry x="280" y="1100" width="120" height="60" as="geometry" />
        </mxCell>
        <mxCell id="1zrVDTjGeMV9Ud-g9cSx-17" value="" style="shape=parallelogram;perimeter=parallelogramPerimeter;whiteSpace=wrap;html=1;fixedSize=1;fillColor=none;strokeColor=#FFFFFF;" parent="1" vertex="1">
          <mxGeometry x="80" y="1210" width="120" height="60" as="geometry" />
        </mxCell>
        <mxCell id="1zrVDTjGeMV9Ud-g9cSx-18" value="" style="shape=parallelogram;perimeter=parallelogramPerimeter;whiteSpace=wrap;html=1;fixedSize=1;fillColor=none;strokeColor=#FFFFFF;" parent="1" vertex="1">
          <mxGeometry x="180" y="1210" width="120" height="60" as="geometry" />
        </mxCell>
      </root>
    </mxGraphModel>
  </diagram>
</mxfile>
